<?xml version="1.0" encoding="UTF-8"?>
<svg version="1.1" xmlns="http://www.w3.org/2000/svg" width="339" height="255">
<path d="M0 0 C7.22298166 -0.34997527 14.44409686 -0.61522384 21.67388535 -0.77718258 C25.03404174 -0.85501994 28.38397227 -0.96832617 31.74169922 -1.1315918 C55.25466617 -2.24563984 55.25466617 -2.24563984 61.31030273 3.14428711 C63.99582325 6.17581571 66.02454345 9.42726858 67.89659119 13.00779724 C69.77508931 16.39942244 72.19383796 19.37896332 74.5625 22.4375 C74.96716492 22.99602158 75.37182983 23.55454315 75.78875732 24.12998962 C77.03497617 25.8573921 77.03497617 25.8573921 79 28 C82.95532904 28 85.23854447 26.15343742 88.4375 24.0625 C91.95251671 21.77319215 94.85606024 20.03598494 99 19 C101.31 21.64 103.62 24.28 106 27 C107.0725 26.67 108.145 26.34 109.25 26 C113 25 113 25 117 25 C117.33 21.37 117.66 17.74 118 14 C123.62961629 11.74815349 123.62961629 11.74815349 127.06640625 11.76953125 C127.79923828 11.77146484 128.53207031 11.77339844 129.28710938 11.77539062 C130.41342773 11.79375977 130.41342773 11.79375977 131.5625 11.8125 C132.31724609 11.81314453 133.07199219 11.81378906 133.84960938 11.81445312 C137.45712624 11.84305899 140.47940302 12.11985075 144 13 C144.33 16.96 144.66 20.92 145 25 C146.258125 25.144375 147.51625 25.28875 148.8125 25.4375 C151.42667123 25.73748686 153.47439892 26.15813297 156 27 C159.465 23.04 159.465 23.04 163 19 C167.92412609 19.98482522 170.34279267 21.22332336 174.5 23.875 C175.6034375 24.57367187 176.706875 25.27234375 177.84375 25.9921875 C179.40609375 26.98605469 179.40609375 26.98605469 181 28 C182.66310589 29.00591082 184.32840062 30.00826753 186 31 C187.09441406 30.00033203 187.09441406 30.00033203 188.2109375 28.98046875 C204.40486098 14.54238544 226.83222711 -0.44511365 249.32202148 -0.22705078 C250.52324394 -0.22748886 250.52324394 -0.22748886 251.74873352 -0.22793579 C254.37296716 -0.22655205 256.99691024 -0.21103628 259.62109375 -0.1953125 C261.44954778 -0.19157897 263.27800382 -0.1887336 265.10646057 -0.18673706 C269.90194289 -0.17912741 274.69730267 -0.15950198 279.49273682 -0.1373291 C285.25557676 -0.11320131 291.01845785 -0.10407698 296.78133392 -0.09242249 C305.52097432 -0.07307593 314.26034622 -0.03473477 323 0 C323 17.82 323 35.64 323 54 C315.08773437 54.00386719 315.08773437 54.00386719 307.015625 54.0078125 C303.65225769 54.02277913 300.28907997 54.03950599 296.92578125 54.0625 C291.59997451 54.09874584 286.27467821 54.12885168 280.94873047 54.12011719 C276.64946569 54.11347723 272.3512294 54.13627063 268.05217743 54.17855453 C266.42097388 54.18960347 264.78966498 54.19046093 263.1584549 54.18042374 C246.21427988 54.08961885 235.01563552 60.13123548 223 72 C217.01342437 78.52255129 212.00568519 85.7179738 207 93 C201.63692569 100.62305977 195.92417699 107.91881332 190.078125 115.171875 C187.17007226 118.7804875 184.29684295 122.41522186 181.4375 126.0625 C180.98713379 126.63661621 180.53676758 127.21073242 180.07275391 127.80224609 C178.71460288 129.53438779 177.35716954 131.26708922 176 133 C170.3662941 140.19343414 164.71560058 147.37136828 159 154.5 C155.10488887 159.35931591 151.22493898 164.22979474 147.375 169.125 C146.92906494 169.69105957 146.48312988 170.25711914 146.02368164 170.84033203 C143.7050309 173.79303174 141.41571912 176.76440231 139.16015625 179.765625 C138.7027002 180.37132324 138.24524414 180.97702148 137.77392578 181.60107422 C136.9008379 182.75998115 136.03307087 183.92292115 135.17138672 185.09033203 C134.16085548 186.43001014 133.08593395 187.72068055 132 189 C131.34 189 130.68 189 130 189 C129.63519531 188.19820312 129.27039063 187.39640625 128.89453125 186.5703125 C126.62068905 182.03323494 123.62482381 177.99955584 120.6875 173.875 C119.4178758 172.07688854 118.14834715 170.27870962 116.87890625 168.48046875 C116.23195801 167.56700684 115.58500977 166.65354492 114.91845703 165.71240234 C111.9727416 161.54761507 109.04864855 157.36779348 106.125 153.1875 C105.55209229 152.36918701 104.97918457 151.55087402 104.38891602 150.70776367 C97.92083197 141.4662368 91.48334624 132.20345799 85.04541016 122.94091797 C82.99435176 119.99187888 80.94089305 117.04452562 78.88671875 114.09765625 C78.21141113 113.12812012 77.53610352 112.15858398 76.84033203 111.15966797 C75.5004001 109.23704471 74.15895558 107.31547463 72.81591797 105.39501953 C69.56964767 100.74264952 66.36771798 96.06911041 63.24609375 91.33203125 C62.65530029 90.44290039 62.06450684 89.55376953 61.45581055 88.63769531 C60.34527726 86.96116674 59.24584697 85.27721298 58.15942383 83.58496094 C57.66853271 82.84665039 57.1776416 82.10833984 56.671875 81.34765625 C56.2500293 80.69804932 55.82818359 80.04844238 55.39355469 79.37915039 C53.85292375 77.53105077 53.85292375 77.53105077 50 78 C49.99166228 87.32837656 50.01579978 96.6559612 50.0802784 105.98412037 C50.10922931 110.31662536 50.12740423 114.64859356 50.12011719 118.98120117 C50.11348201 123.17024721 50.13624371 127.35823645 50.17855453 131.54706383 C50.1896119 133.13722657 50.19045309 134.72749745 50.18042374 136.31766701 C50.12381333 146.62245795 50.92195764 155.69188294 58.4765625 163.53245544 C60.11742614 164.92752243 60.11742614 164.92752243 62.875 166.625 C73.58975376 174.11737113 82.12400533 184.51063094 84.75 197.6953125 C85.92967592 208.57044988 84.86341265 217.77230492 81 228 C77.67929194 226.89309731 76.97477457 226.07665038 74.796875 223.453125 C70.42618429 218.30277278 65.79900133 213.42369516 61.13891602 208.53564453 C57.92685813 205.15449201 54.75979491 201.76873872 51.76171875 198.1953125 C51.27864258 197.62973633 50.79556641 197.06416016 50.29785156 196.48144531 C49.02464198 194.97790636 47.77505961 193.45444885 46.52734375 191.9296875 C44.07561902 189.64948193 44.07561902 189.64948193 40.5703125 190.0234375 C31.31487897 192.55501122 21.86135925 197.23948878 16.5625 205.5 C14.83163066 209.37714732 14.60189196 210.1257247 16 214 C17.81318028 216.39319994 19.89103465 218.49246421 22 220.625 C23.19788335 221.87253655 24.3931829 223.12255901 25.5859375 224.375 C26.17213867 224.98988281 26.75833984 225.60476562 27.36230469 226.23828125 C29.56720105 228.61015545 31.60333873 231.09608554 33.625 233.625 C38.47009448 239.67911246 43.71115145 245.33549492 49 251 C48.67 251.99 48.34 252.98 48 254 C33.06873938 257.80179942 15.69772859 255.46087553 2.53515625 247.71484375 C-7.25066911 241.09546419 -12.9380101 231.67877846 -15.59863281 220.1875 C-18.59856792 203.83748872 -14.73615507 190.28611949 -8.39839363 175.30601501 C-7.93692373 174.21503006 -7.47545383 173.1240451 -7 172 C-6.49351362 170.83759293 -5.98702724 169.67518585 -5.46519279 168.47755432 C-1.4533373 158.88930579 -0.13249808 150.24663004 -0.22705078 139.86328125 C-0.21885272 138.32397934 -0.20803481 136.78468955 -0.19483948 135.24542236 C-0.16673763 131.12227708 -0.17464321 126.99994161 -0.18970728 122.87675858 C-0.1991712 118.54723321 -0.17456005 114.21789452 -0.15377808 109.88842773 C-0.11961157 101.71488089 -0.11547432 93.54161449 -0.12250316 85.36801052 C-0.12902394 76.05213413 -0.10149364 66.73645176 -0.07130075 57.42063332 C-0.01001913 38.28039596 0.00914355 19.14032692 0 0 Z M106 62 C107.53937395 66.8380324 110.31343315 70.15810702 113.5 74 C114.57919562 75.32334637 115.65730002 76.64758331 116.734375 77.97265625 C117.27771484 78.6392627 117.82105469 79.30586914 118.38085938 79.99267578 C120.88861776 83.10166092 123.32349501 86.26492466 125.75 89.4375 C126.17990234 89.99888672 126.60980469 90.56027344 127.05273438 91.13867188 C128.03643728 92.42480246 129.01843413 93.7122377 130 95 C134.18154715 93.40088102 136.76784061 90.31160239 139.6875 87.0625 C140.21279297 86.48491943 140.73808594 85.90733887 141.27929688 85.31225586 C147.64435717 78.25983866 153.973183 71.08661865 159 63 C141.37367347 49.94346183 124.11408284 50.09095405 106 62 Z " fill="#000000" transform="translate(16,0)"/>
<path d="M0 0 C0.33 0 0.66 0 1 0 C1.18792114 0.8521106 1.18792114 0.8521106 1.37963867 1.72143555 C7.06195414 29.82678467 7.06195414 29.82678467 25 51 C29.78797844 52.95254182 34.19338171 53.30422698 39.30029297 53.31884766 C40.11071548 53.32889328 40.921138 53.3389389 41.75611877 53.34928894 C44.41813488 53.38002517 47.08005086 53.39712933 49.7421875 53.4140625 C51.5945013 53.43278185 53.44680664 53.45235583 55.29910278 53.4727478 C60.16189581 53.52399397 65.02471645 53.56365988 69.88763428 53.60089111 C75.72898478 53.64803246 81.57019901 53.70959805 87.41143799 53.76873779 C96.27423676 53.85685842 105.13701063 53.92668838 114 54 C114 70.5 114 87 114 104 C90.35362863 104.16043524 90.35362863 104.16043524 80.203125 104.1953125 C73.30163124 104.21913929 66.4003516 104.247197 59.49902344 104.30175781 C53.92930391 104.34551099 48.35981431 104.36919896 42.78993607 104.37950897 C40.67466238 104.38684775 38.55939997 104.40117729 36.44422531 104.42292023 C24.57706636 104.53995577 14.22537794 104.24793019 3 100 C1.91641205 99.60113586 0.8328241 99.20227173 -0.28359985 98.7913208 C-14.87175802 93.24611896 -28.30296692 83.82283719 -36 70 C-38.90084257 63.45429473 -40.8746285 58.11593676 -39 51 C-37.31610529 48.14121778 -35.28667572 45.62603158 -33.1875 43.0625 C-31.99261735 41.55407593 -30.7986266 40.04494499 -29.60546875 38.53515625 C-29.00009277 37.77734863 -28.3947168 37.01954102 -27.77099609 36.23876953 C-25.11154399 32.87687598 -22.55579883 29.44092768 -20 26 C-15.63753543 20.16188819 -11.23740861 14.35342229 -6.8125 8.5625 C-6.24724609 7.82193359 -5.68199219 7.08136719 -5.09960938 6.31835938 C-4.57818359 5.63708984 -4.05675781 4.95582031 -3.51953125 4.25390625 C-3.05651611 3.64877197 -2.59350098 3.0436377 -2.11645508 2.42016602 C-1 1 -1 1 0 0 Z " fill="#000000" transform="translate(225,107)"/>
<path d="M0 0 C3.74573459 1.2485782 3.78391866 2.13556927 5.5 5.5625 C8.56070102 10.92253362 12.21525543 13.59434257 17.25390625 17.01953125 C26.45712677 23.65684676 33.51799289 34.48877681 35.75 45.6953125 C36.92967592 56.57044988 35.86341265 65.77230492 32 76 C28.67929194 74.89309731 27.97477457 74.07665038 25.796875 71.453125 C21.42618429 66.30277278 16.79900133 61.42369516 12.13891602 56.53564453 C8.92685813 53.15449201 5.75979491 49.76873872 2.76171875 46.1953125 C2.03710449 45.34694824 2.03710449 45.34694824 1.29785156 44.48144531 C0.02464198 42.97790636 -1.22494039 41.45444885 -2.47265625 39.9296875 C-4.92438098 37.64948193 -4.92438098 37.64948193 -8.4296875 38.0234375 C-17.68512103 40.55501122 -27.13864075 45.23948878 -32.4375 53.5 C-34.16836934 57.37714732 -34.39810804 58.1257247 -33 62 C-31.18681972 64.39319994 -29.10896535 66.49246421 -27 68.625 C-25.80211665 69.87253655 -24.6068171 71.12255901 -23.4140625 72.375 C-22.82786133 72.98988281 -22.24166016 73.60476562 -21.63769531 74.23828125 C-19.43279895 76.61015545 -17.39666127 79.09608554 -15.375 81.625 C-10.52990552 87.67911246 -5.28884855 93.33549492 0 99 C-0.495 100.485 -0.495 100.485 -1 102 C-15.93126062 105.80179942 -33.30227141 103.46087553 -46.46484375 95.71484375 C-57.03457624 88.5652096 -62.41925643 78.35498831 -65 66 C-65.14679199 65.30213379 -65.29358398 64.60426758 -65.44482422 63.88525391 C-66.39893092 58.54104096 -66.89362979 53.18007565 -65 48 C-61.00487524 42.92145158 -55.06092062 39.83626539 -49.58300781 36.58740234 C-45.38263422 34.00603854 -41.4946845 31.03000827 -37.5625 28.0625 C-35.98434795 26.89410917 -34.40491135 25.72745146 -32.82421875 24.5625 C-31.64158447 23.68851563 -31.64158447 23.68851563 -30.43505859 22.796875 C-27.92430415 20.94414263 -25.40991845 19.0964369 -22.89453125 17.25 C-22.05398193 16.6324585 -21.21343262 16.01491699 -20.34741211 15.37866211 C-18.759051 14.21189818 -17.1700729 13.04597346 -15.58032227 11.88110352 C-14.84998779 11.34412842 -14.11965332 10.80715332 -13.3671875 10.25390625 C-12.65401367 9.73070801 -11.94083984 9.20750977 -11.20605469 8.66845703 C-9.63043297 7.47680156 -8.08151731 6.24949669 -6.55175781 4.99951172 C-5.75350586 4.34869629 -4.95525391 3.69788086 -4.1328125 3.02734375 C-3.4123877 2.425271 -2.69196289 1.82319824 -1.94970703 1.20288086 C-0.98460205 0.60745483 -0.98460205 0.60745483 0 0 Z " fill="#D7D7D7" transform="translate(65,152)"/>
<path d="M0 0 C0.33 0 0.66 0 1 0 C1.18792114 0.8521106 1.18792114 0.8521106 1.37963867 1.72143555 C7.28559017 29.60544713 7.28559017 29.60544713 25 51 C25.66 51.33 26.32 51.66 27 52 C24.685559 58.31415457 20.79459347 63.49920442 17 69 C16.38092773 69.8986377 15.76185547 70.79727539 15.12402344 71.72314453 C13.00320325 74.7972829 10.87769171 77.86811392 8.75 80.9375 C8.05245605 81.94474121 7.35491211 82.95198242 6.63623047 83.98974609 C5.96736816 84.95090332 5.29850586 85.91206055 4.609375 86.90234375 C4.01092773 87.76335693 3.41248047 88.62437012 2.79589844 89.51147461 C0.94367071 92.0780539 -1.00298742 94.54494945 -3 97 C-16.74003809 92.85585967 -29.0404413 82.49843229 -36 70 C-38.90084257 63.45429473 -40.8746285 58.11593676 -39 51 C-37.31610529 48.14121778 -35.28667572 45.62603158 -33.1875 43.0625 C-31.99261735 41.55407593 -30.7986266 40.04494499 -29.60546875 38.53515625 C-29.00009277 37.77734863 -28.3947168 37.01954102 -27.77099609 36.23876953 C-25.11154399 32.87687598 -22.55579883 29.44092768 -20 26 C-15.63753543 20.16188819 -11.23740861 14.35342229 -6.8125 8.5625 C-6.24724609 7.82193359 -5.68199219 7.08136719 -5.09960938 6.31835938 C-4.57818359 5.63708984 -4.05675781 4.95582031 -3.51953125 4.25390625 C-3.05651611 3.64877197 -2.59350098 3.0436377 -2.11645508 2.42016602 C-1 1 -1 1 0 0 Z " fill="#D7D7D7" transform="translate(225,107)"/>
<path d="M0 0 C0.73283203 0.00193359 1.46566406 0.00386719 2.22070312 0.00585938 C2.97158203 0.01810547 3.72246094 0.03035156 4.49609375 0.04296875 C5.25083984 0.04361328 6.00558594 0.04425781 6.78320312 0.04492188 C10.39071999 0.07352774 13.41299677 0.3503195 16.93359375 1.23046875 C17.42859375 7.17046875 17.42859375 7.17046875 17.93359375 13.23046875 C19.19171875 13.37484375 20.44984375 13.51921875 21.74609375 13.66796875 C24.36026498 13.96795561 26.40799267 14.38860172 28.93359375 15.23046875 C32.39859375 11.27046875 32.39859375 11.27046875 35.93359375 7.23046875 C40.85624764 8.21499953 43.32663097 9.46754676 47.49609375 12.10546875 C48.61113281 12.80414063 49.72617188 13.5028125 50.875 14.22265625 C53.30475762 15.81766956 55.64065319 17.44769345 57.93359375 19.23046875 C57.05765328 23.78437432 54.38662791 26.48677625 51.37109375 29.85546875 C50.27336477 31.10556493 49.17701557 32.35687402 48.08203125 33.609375 C47.54416992 34.22312988 47.00630859 34.83688477 46.45214844 35.46923828 C44.39503455 37.85509352 42.44102403 40.3152319 40.49609375 42.79296875 C37.82088806 46.18305195 35.08307245 49.27783246 31.93359375 52.23046875 C31.41152344 51.84375 30.88945312 51.45703125 30.3515625 51.05859375 C20.39611336 44.01480837 11.19039406 40.99256248 -1.06640625 42.23046875 C-7.88664469 43.42648158 -13.26473121 46.27083514 -19.03515625 50.0234375 C-21.06640625 51.23046875 -21.06640625 51.23046875 -23.06640625 51.23046875 C-24.93689119 48.91216413 -26.69941183 46.58047086 -28.44140625 44.16796875 C-32.78377261 38.25700605 -37.21594075 32.44323383 -41.81640625 26.73046875 C-42.34153809 26.07812256 -42.86666992 25.42577637 -43.40771484 24.75366211 C-44.62525494 23.24429631 -45.84550294 21.73711539 -47.06640625 20.23046875 C-45.577377 15.92775435 -42.43197278 14.23869778 -38.69140625 12.04296875 C-38.11390625 11.68783203 -37.53640625 11.33269531 -36.94140625 10.96679688 C-33.92199773 9.15032622 -31.52517412 8.09516072 -28.06640625 7.23046875 C-25.75640625 9.87046875 -23.44640625 12.51046875 -21.06640625 15.23046875 C-19.99390625 14.90046875 -18.92140625 14.57046875 -17.81640625 14.23046875 C-14.06640625 13.23046875 -14.06640625 13.23046875 -10.06640625 13.23046875 C-9.73640625 9.60046875 -9.40640625 5.97046875 -9.06640625 2.23046875 C-3.43678996 -0.02137776 -3.43678996 -0.02137776 0 0 Z " fill="#FDB225" transform="translate(143.06640625,11.76953125)"/>
<path d="M0 0 C5.28592604 4.16126093 9.3263812 8.70967898 13.51171875 13.96484375 C17.78489363 19.17717794 22.40168012 24.07507049 27 29 C26.505 30.485 26.505 30.485 26 32 C10.71620522 35.89156171 -6.01399878 33.10844709 -19.625 25.6953125 C-22.31250889 23.77692622 -24.05692969 21.65373029 -26 19 C-25.24493164 18.45641846 -25.24493164 18.45641846 -24.47460938 17.90185547 C-22.14915924 16.22704113 -19.82457637 14.55102685 -17.5 12.875 C-16.70851563 12.30523437 -15.91703125 11.73546875 -15.1015625 11.1484375 C-10.02552911 7.48703637 -4.99209918 3.77505983 0 0 Z " fill="#000000" transform="translate(38,222)"/>
<path d="M0 0 C2.68475092 2.34723938 3.84717014 4.56471634 5.125 7.875 C5.45757812 8.71804687 5.79015625 9.56109375 6.1328125 10.4296875 C10.18379995 22.43666832 8.37583265 34.41576447 4 46 C0.68741027 44.89580342 0.00018849 44.10424175 -2.16796875 41.48828125 C-6.73653348 36.10282879 -11.60614517 31.02563406 -16.47851562 25.91601562 C-17.16236328 25.19478516 -17.84621094 24.47355469 -18.55078125 23.73046875 C-19.16606689 23.08489014 -19.78135254 22.43931152 -20.4152832 21.77416992 C-22 20 -22 20 -24 17 C-16.02884665 11.29155156 -8.04787518 5.60013434 0 0 Z " fill="#010101" transform="translate(93,182)"/>
</svg>
